PathFileType	4	(X/Y/Z)	s03c0102.trc
DataRate	CameraRate	NumFrames	NumMarkers	Units	OrigDataRate	OrigDataStartFrame	OrigNumFrames
200	200	5	52	mm	200	750	2000
Frame#	Time	racr			lacr			c7			jug			rlel			rdr			llel			ldr			s2			lic			ric			lasi			rasi			rpsi			lpsi			rgt			lgt			rth1			rth2			rth3			rth4			rlfc			rmfc			rsh1			rsh2			rsh3			rsh4			rlmal			rmmal			rcal			rtoe			rmt5			rmt1			lth1			lth2			lth4			lth3			llfc			lmfc			lsh1			lsh2			lsh3			lsh4			llmal			lmmal			lcal			ltoe			lmt1			lmt5			SBIKE			LBIKE			RBIKE			
		X1	Y1	Z1	X2	Y2	Z2	X3	Y3	Z3	X4	Y4	Z4	X5	Y5	Z5	X6	Y6	Z6	X7	Y7	Z7	X8	Y8	Z8	X9	Y9	Z9	X10	Y10	Z10	X11	Y11	Z11	X12	Y12	Z12	X13	Y13	Z13	X14	Y14	Z14	X15	Y15	Z15	X16	Y16	Z16	X17	Y17	Z17	X18	Y18	Z18	X19	Y19	Z19	X20	Y20	Z20	X21	Y21	Z21	X22	Y22	Z22	X23	Y23	Z23	X24	Y24	Z24	X25	Y25	Z25	X26	Y26	Z26	X27	Y27	Z27	X28	Y28	Z28	X29	Y29	Z29	X30	Y30	Z30	X31	Y31	Z31	X32	Y32	Z32	X33	Y33	Z33	X34	Y34	Z34	X35	Y35	Z35	X36	Y36	Z36	X37	Y37	Z37	X38	Y38	Z38	X39	Y39	Z39	X40	Y40	Z40	X41	Y41	Z41	X42	Y42	Z42	X43	Y43	Z43	X44	Y44	Z44	X45	Y45	Z45	X46	Y46	Z46	X47	Y47	Z47	X48	Y48	Z48	X49	Y49	Z49	X50	Y50	Z50	X51	Y51	Z51	X52	Y52	Z52	
750	3.7500	501.011226	1399.153543	-138.845133	415.586870	1415.788243	-428.081878	394.958607	1499.161876	-265.987419	399.723424	1322.006642	-282.638977	554.149395	1153.346601	-6.035807	749.469325	937.655873	-53.077765	508.759145	1167.712756	-483.763779	738.415105	953.982241	-432.010149	-112.632323	1215.659336	-164.455811	17.079352	1272.845555	-369.427979	84.742786	1239.243368	-8.393143	53.370413	1200.909079	-336.664271	103.866354	1174.227847	-58.687342	-74.435423	1262.172694	-118.561674	-87.552517	1271.155652	-197.654702	16.438851	1114.014065	1.910712	-13.708770	1190.577624	-385.424907	93.835762	969.673195	12.907349	162.795031	913.211655	12.292391	195.469456	834.316424	1.580340	191.546138	934.600447	1.575663	250.859829	720.453912	-33.677778	252.912292	708.504904	-152.880434	195.901458	563.360936	-9.116813	191.592470	475.355603	-25.831813	144.009861	401.079582	-28.758535	220.190416	469.607377	-51.086858	94.870350	277.996334	-54.253919	122.379488	288.471798	-133.990752	27.675275	252.876436	-91.185100	320.629193	152.808910	-115.422446	205.195271	166.461116	-37.761625	230.060248	183.397030	-152.683466	108.559365	1126.168860	-437.245580	192.817278	1117.579238	-454.074430	208.550404	1149.428899	-442.490039	263.377031	1064.884417	-470.865950	396.841432	1020.689356	-477.328617	421.926407	1004.982497	-345.862964	319.500307	864.528983	-481.332954	304.354314	783.721492	-455.621234	245.857976	716.253840	-442.137123	335.071717	773.554162	-435.635697	185.682776	608.142711	-413.630568	224.842713	623.210134	-328.551178	116.057647	576.590147	-361.585528	415.209348	500.222073	-359.366535	322.734070	518.747202	-316.777137	294.463284	503.399644	-431.582065	-214.593931	945.166673	-229.343762	-9.799573	81.597681	-433.147362	-9.294733	80.728336	-32.701816	
751	3.7550	501.245770	1397.315034	-139.824998	414.534125	1415.754692	-428.703814	395.002592	1498.178738	-266.322716	399.160406	1321.078585	-283.628724	552.442640	1151.518747	-5.508913	748.923449	937.160010	-52.817970	506.823672	1167.412456	-484.676081	737.088772	954.500198	-432.067491	-112.848889	1215.999292	-164.879092	16.128143	1273.885892	-369.353093	84.324831	1238.579178	-8.106923	53.725795	1201.372926	-339.029767	103.085999	1173.873314	-58.777379	-74.718311	1262.347203	-118.653134	-87.551865	1271.484253	-197.690171	15.973060	1114.041159	1.724356	-11.862776	1191.388927	-388.982612	94.767524	970.522638	13.036225	164.561453	915.218463	12.744149	198.484945	836.745364	2.413654	192.970016	937.013830	1.903534	255.060501	723.251186	-32.348470	257.725924	711.199198	-151.637326	196.851622	567.216112	-8.254443	190.457170	479.533057	-25.123806	141.090157	406.390504	-28.284641	219.006904	473.117890	-50.337969	89.213617	284.621496	-54.273760	117.176499	294.519237	-133.883245	21.642019	261.298880	-91.500942	311.646786	153.049266	-115.302289	196.718471	170.286207	-37.757059	222.244480	186.096508	-152.641256	109.461348	1124.547166	-435.320228	193.676508	1115.608133	-452.273578	209.004221	1146.671069	-438.678421	264.082358	1062.417639	-468.348764	397.788185	1017.535146	-473.949767	420.729502	1001.808177	-342.277312	321.943478	860.313109	-478.606384	307.454211	779.220476	-453.778780	249.583080	711.057650	-441.271150	338.225563	769.135030	-433.729052	190.992918	601.102521	-413.735868	230.009198	616.552329	-327.491953	121.831433	566.901755	-362.172999	423.371327	500.996123	-359.518070	330.208486	516.224630	-316.952755	302.597640	499.965111	-431.910210	-214.640341	945.163677	-229.268571	-9.841870	81.625128	-433.107769	-9.576471	81.052882	-32.626936	
752	3.7600	501.354903	1395.697456	-140.587804	413.434419	1415.600615	-429.162857	394.964459	1497.306048	-266.627817	398.463653	1320.240713	-284.351852	551.009662	1149.966671	-4.911563	748.434111	936.841159	-52.421927	504.616303	1166.823403	-485.478012	735.766701	954.731076	-432.002527	-113.010610	1216.003060	-165.269428	15.545358	1274.565866	-369.566617	83.521592	1237.752155	-8.376553	53.539739	1201.850122	-339.786077	102.314103	1173.504949	-58.940053	-75.184749	1262.401721	-118.777764	-87.540640	1271.623187	-197.805749	15.541110	1113.984551	1.492516	-11.740499	1191.139467	-389.734865	95.778692	971.782568	13.236132	166.430374	917.407398	13.136731	201.625271	839.478355	3.158983	194.304920	939.970584	2.725950	259.565689	726.386634	-31.055813	262.967074	714.237026	-150.322797	198.147813	571.609449	-7.457528	189.699863	484.096633	-24.506816	138.614700	412.131237	-27.928898	218.131655	477.076021	-49.683951	84.011149	291.806796	-54.333186	112.712540	300.899587	-133.814331	16.088976	270.357350	-91.897769	302.907434	153.543544	-115.082910	188.501165	174.619981	-37.735436	215.503148	189.941666	-151.436062	110.301882	1122.757037	-434.505725	194.577204	1113.042965	-450.684803	210.037090	1144.042347	-437.167820	264.700616	1059.344890	-466.086695	398.653156	1013.062667	-470.018407	419.641342	997.604247	-338.608190	323.984397	855.362722	-475.890569	310.303584	773.775880	-452.017298	253.028411	704.906322	-440.320565	341.089151	763.830351	-431.863153	196.182315	593.165649	-413.758750	235.027615	609.118836	-326.440098	127.333939	556.558860	-362.569481	431.106221	501.327716	-359.452170	337.335684	513.137411	-316.809263	310.847601	495.321614	-431.349544	-214.687149	945.180766	-229.175895	-9.867286	81.649562	-433.106051	-9.609544	81.054882	-32.607807	
753	3.7650	501.122480	1394.198082	-141.834586	412.400405	1415.347947	-429.751114	394.836195	1496.421841	-266.888099	397.680314	1319.418578	-285.261993	549.706599	1148.570021	-4.293096	747.974430	936.525879	-52.021451	503.077568	1166.149329	-485.157609	734.274891	954.925992	-431.719834	-112.741116	1216.595286	-168.011590	15.092580	1274.973502	-369.864317	83.015017	1237.300451	-8.973300	53.693562	1202.266495	-340.377984	101.507718	1173.203723	-59.187178	-75.675289	1262.296338	-119.019129	-87.553040	1271.498970	-198.018116	15.119898	1113.867071	1.232754	-11.248722	1190.411516	-390.315076	96.969509	972.796266	13.197565	168.466553	919.747851	13.423376	204.956401	842.349992	3.765774	196.000503	942.665695	3.077810	264.290069	729.876559	-29.849839	268.224489	717.685935	-149.268743	199.723293	576.269459	-6.743728	189.234104	488.998069	-24.012047	136.544148	418.296026	-27.722968	217.517000	481.403784	-49.286690	79.326456	299.360628	-54.409324	108.515123	307.841729	-133.851883	11.063831	279.869764	-92.312119	294.285334	154.592903	-114.986357	180.712340	179.355919	-37.829473	208.056083	193.401401	-151.674013	111.213534	1120.373419	-433.857699	195.550845	1109.890707	-449.390271	211.149361	1140.808606	-435.915763	265.175619	1055.494703	-464.023222	399.157839	1007.919691	-467.018725	418.041684	992.642865	-335.437824	325.663918	849.421654	-473.320732	312.844643	767.401774	-450.239867	256.241719	697.961406	-439.413590	343.756538	757.273047	-429.541438	201.221164	584.439774	-413.722797	238.742419	601.172290	-326.441950	132.947675	545.421388	-362.918345	438.525015	500.781781	-359.575304	344.390635	509.276645	-317.170339	318.576436	490.453389	-431.653377	-214.726808	945.167833	-229.073658	-9.885060	81.659190	-433.072333	-9.351829	80.744053	-32.641518	
754	3.7700	501.540853	1392.822807	-141.467490	411.356300	1415.009024	-430.163833	394.624336	1495.551300	-267.047971	397.311558	1318.541882	-285.310704	548.781224	1147.472565	-3.657860	747.555632	936.266705	-51.627491	499.868880	1165.124148	-486.833149	732.874129	955.138760	-431.660806	-112.712709	1216.387269	-168.704804	14.998350	1274.957046	-370.485587	82.100912	1236.559626	-9.493737	53.855801	1202.267047	-340.807973	100.724744	1173.024685	-59.502512	-76.215515	1262.052940	-119.473301	-87.550307	1271.155907	-198.395726	14.743346	1113.761800	0.990081	-10.812784	1189.613545	-390.398969	98.315606	974.133696	13.201351	170.611582	922.235137	13.648724	208.842775	845.298228	4.389300	197.817930	945.573947	3.379920	269.108485	733.602028	-28.692966	273.757627	721.472776	-148.082228	201.501806	581.209825	-6.085800	189.362146	494.486587	-23.375974	134.833532	424.704031	-27.868517	217.708884	486.117405	-48.312365	75.113639	307.362264	-54.457352	104.673190	315.235356	-133.841822	6.474054	289.915480	-92.687480	285.876723	155.904137	-114.802650	173.128686	184.570957	-37.962990	200.984376	197.350257	-151.753769	112.156935	1117.505761	-433.821454	196.483410	1105.908382	-448.279961	212.337005	1136.768090	-435.002840	265.659357	1050.669813	-462.090880	399.413089	1001.554489	-462.913265	416.779458	986.469646	-332.459299	326.967992	842.539380	-470.951050	315.064280	760.132087	-448.700262	259.315573	689.990680	-438.454810	346.084623	750.445129	-428.601553	206.198454	574.958680	-413.623533	243.073607	592.387701	-326.076542	138.543203	533.474151	-363.125375	445.523753	499.749767	-359.664079	351.115101	504.727745	-317.462952	325.968738	484.966331	-432.015836	-214.736899	945.155515	-228.979351	-9.914174	81.662711	-433.050733	-9.346099	80.740797	-32.621279	
